<?xml version="1.0" encoding="UTF-8"?><svg id="Layer_1" xmlns="http://www.w3.org/2000/svg" viewBox="0 0 406.1 351.69"><defs><style>.cls-1{fill:#f18f01;}</style></defs><path class="cls-1" d="M406.1,175.85L304.57,0H101.53L0,175.85l101.53,175.83h203.04l101.53-175.83ZM289.54,26.03l86.5,149.82-86.5,149.81H116.56L30.06,175.85,116.56,26.03h172.98Z"/><g><path class="cls-1" d="M130.58,274.77V76.92h67.53c20.99,0,37.52,4.52,49.13,13.45,12.21,9.37,18.4,23.07,18.4,40.71,0,24.39-13.9,34.95-23.49,39.34,16.88,6.35,33.38,21.84,33.38,49.03,0,35.16-24.83,55.32-68.11,55.32h-76.83Zm73.63-28.38c35.07,0,38.86-20.67,38.86-29.56,0-28.25-29.61-31.3-42.35-31.3h-37.7v60.86h41.18Zm-5.81-86.62c21.28,0,34.5-10.43,34.5-27.23,0-18.83-11.8-27.23-38.28-27.23h-31.59v54.46h35.37Z"/><path class="cls-1" d="M272.52,219.44c0,32.56-22.67,52.32-65.11,52.32h-73.83V79.92h64.53c40.11,0,64.53,17.15,64.53,51.16,0,27.32-18.89,37.21-29.65,39.24v.58c13.08,2.62,39.53,14.53,39.53,48.54Zm-77.9-117.14h-34.59v60.46h38.37c25,0,37.5-13.37,37.5-30.23,0-20.06-12.5-30.23-41.28-30.23Zm51.45,114.53c0-24.13-20.06-34.3-45.35-34.3h-40.7v66.86h44.18c23.84,0,41.86-10.17,41.86-32.56Z"/></g></svg>